<svg xmlns="http://www.w3.org/2000/svg" xmlns:xlink="http://www.w3.org/1999/xlink" width="500" zoomAndPan="magnify" viewBox="0 0 375 374.999991" height="500" preserveAspectRatio="xMidYMid meet" version="1.0"><defs><g/><clipPath id="a886293470"><path d="M 41.113281 41.34375 L 334 41.34375 L 334 333.65625 L 41.113281 333.65625 Z M 41.113281 41.34375 " clip-rule="nonzero"/></clipPath><clipPath id="ef882b9d2c"><path d="M 50.113281 41.34375 L 324.886719 41.34375 C 329.855469 41.34375 333.886719 45.375 333.886719 50.34375 L 333.886719 324.65625 C 333.886719 329.625 329.855469 333.65625 324.886719 333.65625 L 50.113281 333.65625 C 45.144531 333.65625 41.113281 329.625 41.113281 324.65625 L 41.113281 50.34375 C 41.113281 45.375 45.144531 41.34375 50.113281 41.34375 Z M 50.113281 41.34375 " clip-rule="nonzero"/></clipPath><clipPath id="01241a0886"><path d="M 0.113281 0.34375 L 293 0.34375 L 293 292.65625 L 0.113281 292.65625 Z M 0.113281 0.34375 " clip-rule="nonzero"/></clipPath><clipPath id="811802681a"><path d="M 9.113281 0.34375 L 283.886719 0.34375 C 288.855469 0.34375 292.886719 4.375 292.886719 9.34375 L 292.886719 283.65625 C 292.886719 288.625 288.855469 292.65625 283.886719 292.65625 L 9.113281 292.65625 C 4.144531 292.65625 0.113281 288.625 0.113281 283.65625 L 0.113281 9.34375 C 0.113281 4.375 4.144531 0.34375 9.113281 0.34375 Z M 9.113281 0.34375 " clip-rule="nonzero"/></clipPath><clipPath id="a8cc910ede"><rect x="0" width="293" y="0" height="293"/></clipPath></defs><g clip-path="url(#a886293470)"><g clip-path="url(#ef882b9d2c)"><g transform="matrix(1, 0, 0, 1, 41, 41)"><g clip-path="url(#a8cc910ede)"><g clip-path="url(#01241a0886)"><g clip-path="url(#811802681a)"><path fill="#ffffff" d="M 0.113281 0.34375 L 292.425781 0.34375 L 292.425781 292.65625 L 0.113281 292.65625 Z M 0.113281 0.34375 " fill-opacity="1" fill-rule="nonzero"/></g></g></g></g></g></g><g fill="#000000" fill-opacity="1"><g transform="translate(58.829417, 213.442097)"><g><path d="M 10.765625 0 L 10.765625 -85.53125 L 28.90625 -85.53125 L 28.90625 0 Z M 10.765625 0 "/></g></g></g><g fill="#000000" fill-opacity="1"><g transform="translate(98.490025, 213.442097)"><g><path d="M 47.09375 -71.671875 C 40.269531 -71.671875 34.984375 -69.101562 31.234375 -63.96875 C 27.492188 -58.84375 25.625 -51.695312 25.625 -42.53125 C 25.625 -23.457031 32.78125 -13.921875 47.09375 -13.921875 C 53.101562 -13.921875 60.378906 -15.421875 68.921875 -18.421875 L 68.921875 -3.21875 C 61.898438 -0.289062 54.054688 1.171875 45.390625 1.171875 C 32.953125 1.171875 23.4375 -2.597656 16.84375 -10.140625 C 10.257812 -17.691406 6.96875 -28.523438 6.96875 -42.640625 C 6.96875 -51.535156 8.582031 -59.328125 11.8125 -66.015625 C 15.050781 -72.703125 19.703125 -77.832031 25.765625 -81.40625 C 31.835938 -84.976562 38.945312 -86.765625 47.09375 -86.765625 C 55.40625 -86.765625 63.753906 -84.753906 72.140625 -80.734375 L 66.28125 -65.984375 C 63.082031 -67.503906 59.863281 -68.832031 56.625 -69.96875 C 53.394531 -71.101562 50.21875 -71.671875 47.09375 -71.671875 Z M 47.09375 -71.671875 "/></g></g></g><g fill="#000000" fill-opacity="1"><g transform="translate(174.827927, 213.442097)"><g><path d="M 63.125 0 L 56.921875 -20.359375 L 25.734375 -20.359375 L 19.546875 0 L 0 0 L 30.1875 -85.875 L 52.359375 -85.875 L 82.65625 0 Z M 52.59375 -35.5625 C 46.863281 -54.007812 43.632812 -64.441406 42.90625 -66.859375 C 42.1875 -69.285156 41.671875 -71.195312 41.359375 -72.59375 C 40.078125 -67.601562 36.390625 -55.257812 30.296875 -35.5625 Z M 52.59375 -35.5625 "/></g></g></g><g fill="#000000" fill-opacity="1"><g transform="translate(257.483458, 213.442097)"><g><path d="M 10.765625 0 L 10.765625 -85.53125 L 28.90625 -85.53125 L 28.90625 -14.984375 L 63.59375 -14.984375 L 63.59375 0 Z M 10.765625 0 "/></g></g></g><g fill="#000000" fill-opacity="1"><g transform="translate(97.761713, 273.464044)"><g><path d="M 46.96875 -49.96875 L 46.96875 -17.640625 C 46.96875 -13.941406 46.140625 -10.703125 44.484375 -7.921875 C 42.828125 -5.148438 40.4375 -3.019531 37.3125 -1.53125 C 34.195312 -0.0507812 30.507812 0.6875 26.25 0.6875 C 19.820312 0.6875 14.832031 -0.957031 11.28125 -4.25 C 7.726562 -7.539062 5.953125 -12.050781 5.953125 -17.78125 L 5.953125 -49.96875 L 16.515625 -49.96875 L 16.515625 -19.375 C 16.515625 -15.53125 17.285156 -12.707031 18.828125 -10.90625 C 20.378906 -9.101562 22.945312 -8.203125 26.53125 -8.203125 C 29.988281 -8.203125 32.5 -9.109375 34.0625 -10.921875 C 35.625 -12.734375 36.40625 -15.578125 36.40625 -19.453125 L 36.40625 -49.96875 Z M 46.96875 -49.96875 "/></g></g></g><g fill="#000000" fill-opacity="1"><g transform="translate(150.668913, 273.464044)"><g><path d="M 54.96875 0 L 42.890625 0 L 36.125 -26.25 C 35.875 -27.1875 35.445312 -29.117188 34.84375 -32.046875 C 34.238281 -34.972656 33.890625 -36.9375 33.796875 -37.9375 C 33.660156 -36.707031 33.316406 -34.726562 32.765625 -32 C 32.222656 -29.28125 31.804688 -27.34375 31.515625 -26.1875 L 24.78125 0 L 12.75 0 L 0 -49.96875 L 10.421875 -49.96875 L 16.8125 -22.703125 C 17.925781 -17.660156 18.738281 -13.296875 19.25 -9.609375 C 19.382812 -10.898438 19.695312 -12.90625 20.1875 -15.625 C 20.675781 -18.351562 21.132812 -20.472656 21.5625 -21.984375 L 28.84375 -49.96875 L 38.859375 -49.96875 L 46.140625 -21.984375 C 46.460938 -20.722656 46.863281 -18.804688 47.34375 -16.234375 C 47.820312 -13.660156 48.1875 -11.453125 48.4375 -9.609375 C 48.664062 -11.378906 49.03125 -13.59375 49.53125 -16.25 C 50.03125 -18.90625 50.484375 -21.054688 50.890625 -22.703125 L 57.25 -49.96875 L 67.671875 -49.96875 Z M 54.96875 0 "/></g></g></g><g fill="#000000" fill-opacity="1"><g transform="translate(218.340914, 273.464044)"><g><path d="M 46.96875 -49.96875 L 46.96875 -17.640625 C 46.96875 -13.941406 46.140625 -10.703125 44.484375 -7.921875 C 42.828125 -5.148438 40.4375 -3.019531 37.3125 -1.53125 C 34.195312 -0.0507812 30.507812 0.6875 26.25 0.6875 C 19.820312 0.6875 14.832031 -0.957031 11.28125 -4.25 C 7.726562 -7.539062 5.953125 -12.050781 5.953125 -17.78125 L 5.953125 -49.96875 L 16.515625 -49.96875 L 16.515625 -19.375 C 16.515625 -15.53125 17.285156 -12.707031 18.828125 -10.90625 C 20.378906 -9.101562 22.945312 -8.203125 26.53125 -8.203125 C 29.988281 -8.203125 32.5 -9.109375 34.0625 -10.921875 C 35.625 -12.734375 36.40625 -15.578125 36.40625 -19.453125 L 36.40625 -49.96875 Z M 46.96875 -49.96875 "/></g></g></g></svg>